+++++++++++++++++++++++++++++++++++++++++++++++++++++++++++++++++++++++++++++++
The video proposed here does not contain any logos and off-screen commentaries.
+++++++++++++++++++++++++++++++++++++++++++++++++++++++++++++++++++++++++++++++

Brief media specs:
Video: 1280x720 (16:9) at 50.000 fps, ~6112 kbps
Audio: DTS 5.1 (48 kHz / 1510 kbps) 
Audio codec: DTS
Video codec: X.264
File format: MKV


Source file (grabbed from the feed) that have been used for encoding:
VIDEO SOURCE: MPEG2 4:2:2, 1080/50i, 35 Mbps
AUDIO SOURCE: Dolby E 5.1, 24-bit


Media info:

General

Format                           : Matroska
Format version                   : Version 2
File size                        : 5.75 GiB
Duration                         : 1h 45mn
Overall bit rate                 : 7 777 Kbps

Video
ID                               : 1
Format                           : AVC
Format/Info                      : Advanced Video Codec
Format profile                   : High@L4.1
Format settings, CABAC           : Yes
Format settings, ReFrames        : 5 frames
Codec ID                         : V_MPEG4/ISO/AVC
Duration                         : 1h 45mn
Bit rate                         : 6 112 Kbps
Width                            : 1 280 pixels
Height                           : 720 pixels
Display aspect ratio             : 16:9
Frame rate                       : 50.000 fps
Color space                      : YUV
Chroma subsampling               : 4:2:0
Bit depth                        : 8 bits
Scan type                        : Progressive
Bits/(Pixel*Frame)               : 0.133
Stream size                      : 4.52 GiB (79%)
Writing library                  : x264 core 120 r2164 da19765
Language                         : English

Audio
ID                               : 2
Format                           : DTS
Format/Info                      : Digital Theater Systems
Codec ID                         : A_DTS
Duration                         : 1h 45mn
Bit rate mode                    : Constant
Bit rate                         : 1 510 Kbps
Channel(s)                       : 6 channels
Channel positions                : Front: L C R, Side: L R, LFE
Sampling rate                    : 48.0 KHz
Bit depth                        : 24 bits
Compression mode                 : Lossy
Stream size                      : 1.12 GiB (19%)
Language                         : English

ENJOY FROM WATCHING!